<svg width="195" height="195" viewBox="0 0 195 195" fill="none" xmlns="http://www.w3.org/2000/svg">
<rect width="195" height="195" rx="44" fill="#4199EB"/>
<path d="M61 144V50.9091H101.364C108.455 50.9091 114.409 51.8636 119.227 53.7727C124.076 55.6818 127.727 58.3788 130.182 61.8636C132.667 65.3485 133.909 69.4545 133.909 74.1818C133.909 77.6061 133.152 80.7273 131.636 83.5455C130.152 86.3636 128.061 88.7273 125.364 90.6364C122.667 92.5151 119.515 93.8182 115.909 94.5455V95.4545C119.909 95.6061 123.545 96.6212 126.818 98.5C130.091 100.348 132.697 102.909 134.636 106.182C136.576 109.424 137.545 113.242 137.545 117.636C137.545 122.727 136.212 127.258 133.545 131.227C130.909 135.197 127.152 138.318 122.273 140.591C117.394 142.864 111.576 144 104.818 144H61ZM86.2727 123.818H98.0909C102.333 123.818 105.515 123.03 107.636 121.455C109.758 119.848 110.818 117.485 110.818 114.364C110.818 112.182 110.318 110.333 109.318 108.818C108.318 107.303 106.894 106.152 105.045 105.364C103.227 104.576 101.03 104.182 98.4545 104.182H86.2727V123.818ZM86.2727 88.5455H96.6364C98.8485 88.5455 100.803 88.197 102.5 87.5C104.197 86.803 105.515 85.803 106.455 84.5C107.424 83.1667 107.909 81.5455 107.909 79.6364C107.909 76.7576 106.879 74.5606 104.818 73.0455C102.758 71.5 100.152 70.7273 97 70.7273H86.2727V88.5455Z" fill="white"/>
</svg>
